<svg xmlns="http://www.w3.org/2000/svg" viewBox="0 0 29.4 27.9"><path fill="#F98355" d="M10.4.9c-.3-.1-.7-.1-1.2.1-3.6 1.5-7 3.3-8.3 7.2-1.3 3.9-1.1 8.4.3 12.3 2.9 7.7 15 9 21.5 5.9 7.5-3.5 8.1-12.6 4.9-19.5C24.7.8 16.7-1.4 10.4.9zm11.7 10.4v.4c0 4.2-3.2 9.1-9.1 9.1-1.8 0-3.5-.5-4.9-1.4h.8c1.5 0 2.9-.5 4-1.4-1.4 0-2.6-1-3-2.2.2 0 .4.1.6.1.3 0 .6 0 .8-.1-1.5-.3-2.6-1.6-2.6-3.1.4.2.9.4 1.4.4-.9-.6-1.4-1.6-1.4-2.7 0-.6.2-1.1.4-1.6 1.6 1.9 3.9 3.2 6.6 3.3-.1-.2-.1-.5-.1-.7 0-1.8 1.4-3.2 3.2-3.2.9 0 1.8.4 2.3 1 .7-.1 1.4-.4 2-.8-.2.7-.7 1.4-1.4 1.8.6-.1 1.3-.2 1.8-.5-.3.6-.8 1.2-1.4 1.6z"/></svg>