<?xml version="1.0" encoding="utf-8"?><svg width="132" height="124" viewBox="0 0 132 124" xmlns="http://www.w3.org/2000/svg" xmlns:xlink="http://www.w3.org/1999/xlink"><view id="share-facebook" viewBox="110 30 22 30"/><svg viewBox="-6 -6 22 30" width="22" height="30" x="110" y="30"><path d="M9.6.5S8.7 0 6 0 2.4 1.4 2.3 2.8c-.1 1.4-.1 1.4-.1 3.2H0v2.9h2.1v9.2h3.5V9H9l.1-2.9H5.7v-2S5.8 3 6.7 3s2 .2 2.4.2L9.6.5z"/></svg><view id="share-facebook-on" viewBox="110 0 22 30"/><svg viewBox="-6 -6 22 30" width="22" height="30" x="110"><path fill="#F98355" d="M9.6.5S8.7 0 6 0 2.4 1.4 2.3 2.8c-.1 1.4-.1 1.4-.1 3.2H0v2.9h2.1v9.2h3.5V9H9l.1-2.9H5.7v-2S5.8 3 6.7 3s2 .2 2.4.2L9.6.5z"/></svg><view id="share-googleplus" viewBox="0 40 38 28"/><svg viewBox="-6 -6 38 28" width="38" height="28" y="40"><path d="M14.5 13.3c-2 2.9-6.1 3.7-9.3 2.5C2 14.5-.2 11.2 0 7.7.1 3.5 3.9-.1 8.2 0c2-.1 3.9.8 5.4 2-.7.7-1.3 1.5-2.1 2.1C9.7 2.9 7 2.5 5.2 4c-2.7 1.8-2.8 6.2-.2 8.1 2.5 2.2 7.2 1.1 7.8-2.3-1.6 0-3.1 0-4.7-.1V6.9h7.8c.2 2.3-.1 4.6-1.4 6.4zm8.8-4v2.3H21V9.3h-2.3V7H21V4.7h2.3V7h2.3v2.3h-2.3z"/></svg><view id="share-googleplus-on" viewBox="38 40 38 28"/><svg viewBox="-6 -6 38 28" width="38" height="28" x="38" y="40"><path d="M14.5 13.3c-2 2.9-6.1 3.7-9.3 2.5C2 14.5-.2 11.2 0 7.7.1 3.5 3.9-.1 8.2 0c2-.1 3.9.8 5.4 2-.7.7-1.3 1.5-2.1 2.1C9.7 2.9 7 2.5 5.2 4c-2.7 1.8-2.8 6.2-.2 8.1 2.5 2.2 7.2 1.1 7.8-2.3-1.6 0-3.1 0-4.7-.1V6.9h7.8c.2 2.3-.1 4.6-1.4 6.4zm8.8-4v2.3H21V9.3h-2.3V7H21V4.7h2.3V7h2.3v2.3h-2.3z" fill="#F98355"/></svg><view id="share-instagram" viewBox="29 95 29 29"/><svg viewBox="-6 -6 29 29" width="29" height="29" x="29" y="95"><path d="M14 0H2.6C1.2 0 0 1.2 0 2.6V14c0 1.4 1.2 2.6 2.6 2.6H14c1.4 0 2.6-1.2 2.6-2.6V2.6C16.6 1.2 15.4 0 14 0zM2.1 8.5H4c0 2.3 1.9 4.1 4.2 4.1 2.3 0 4.2-1.9 4.2-4.1h2.2v4.8c0 .6-.5 1.2-1.2 1.2h-10c-.6 0-1.2-.5-1.2-1.2V8.5zm8.4 0c0 1.3-1.1 2.4-2.4 2.4-1.3 0-2.4-1.1-2.4-2.4 0-1.3 1.1-2.4 2.4-2.4 1.3 0 2.4 1.1 2.4 2.4zM11.6 5V2.6h2.3V5h-2.3z"/></svg><view id="share-instagram-on" viewBox="0 95 29 29"/><svg viewBox="-6 -6 29 29" width="29" height="29" y="95"><path fill="#F98355" d="M14 0H2.6C1.2 0 0 1.2 0 2.6V14c0 1.4 1.2 2.6 2.6 2.6H14c1.4 0 2.6-1.2 2.6-2.6V2.6C16.6 1.2 15.4 0 14 0zM2.1 8.5H4c0 2.3 1.9 4.1 4.2 4.1 2.3 0 4.2-1.9 4.2-4.1h2.2v4.8c0 .6-.5 1.2-1.2 1.2h-10c-.6 0-1.2-.5-1.2-1.2V8.5zm8.4 0c0 1.3-1.1 2.4-2.4 2.4-1.3 0-2.4-1.1-2.4-2.4 0-1.3 1.1-2.4 2.4-2.4 1.3 0 2.4 1.1 2.4 2.4zM11.6 5V2.6h2.3V5h-2.3z"/></svg><view id="share-pinterest" viewBox="82 0 28 33"/><svg viewBox="-6 -6 28 33" width="28" height="33" x="82"><path d="M8.4 0C2.8 0 0 4 0 7.3c0 2 .8 3.8 2.4 4.5.3.1.5 0 .6-.3.1-.2.2-.7.2-.9.1-.3 0-.4-.2-.7-.4-.5-.7-1.2-.7-2.3 0-3 2.2-5.6 5.8-5.6C11.2 2 13 3.9 13 6.5c0 3.4-1.5 6.2-3.7 6.2-1.2 0-2.1-1-1.9-2.3.4-1.5 1-3.1 1-4.2 0-1-.5-1.8-1.6-1.8-1.3 0-2.3 1.3-2.3 3 0 1.1.4 1.9.4 1.9s-1.3 5.4-1.5 6.4c-.4 1.9-.1 4.2 0 4.5 0 .1.2.2.3.1.1-.2 1.6-2 2.1-3.8.1-.5.8-3.2.8-3.2.4.8 1.6 1.5 2.9 1.5 3.8 0 6.3-3.4 6.3-8.1 0-3.5-2.9-6.7-7.4-6.7z"/></svg><view id="share-pinterest-on" viewBox="82 33 28 33"/><svg viewBox="-6 -6 28 33" width="28" height="33" x="82" y="33"><path fill="#F98355" d="M8.4 0C2.8 0 0 4 0 7.3c0 2 .8 3.8 2.4 4.5.3.1.5 0 .6-.3.1-.2.2-.7.2-.9.1-.3 0-.4-.2-.7-.4-.5-.7-1.2-.7-2.3 0-3 2.2-5.6 5.8-5.6C11.2 2 13 3.9 13 6.5c0 3.4-1.5 6.2-3.7 6.2-1.2 0-2.1-1-1.9-2.3.4-1.5 1-3.1 1-4.2 0-1-.5-1.8-1.6-1.8-1.3 0-2.3 1.3-2.3 3 0 1.1.4 1.9.4 1.9s-1.3 5.4-1.5 6.4c-.4 1.9-.1 4.2 0 4.5 0 .1.2.2.3.1.1-.2 1.6-2 2.1-3.8.1-.5.8-3.2.8-3.2.4.8 1.6 1.5 2.9 1.5 3.8 0 6.3-3.4 6.3-8.1 0-3.5-2.9-6.7-7.4-6.7z"/></svg><view id="share-twitter" viewBox="0 68 31 27"/><svg viewBox="-6 -6 31 27" width="31" height="27" y="68"><path d="M19 1.8c-.7.3-1.4.5-2.2.6.8-.5 1.4-1.2 1.7-2.2-.8.4-1.6.8-2.5.9C15.3.5 14.3 0 13.2 0 11 0 9.3 1.7 9.3 3.9c0 .3 0 .6.1.9-3.2-.2-6.1-1.7-8-4.1-.4.6-.6 1.3-.6 2 0 1.4.7 2.5 1.7 3.2-.6 0-1.2-.2-1.8-.5C.7 7.3 2 8.9 3.8 9.2c-.3.1-.7.1-1 .1-.3 0-.5 0-.7-.1.5 1.5 1.9 2.7 3.6 2.7-1.3 1-3 1.7-4.8 1.7-.3 0-.6 0-.9-.1 1.7 1.1 3.8 1.8 6 1.8 7.2 0 11.1-5.9 11.1-11.1v-.5c.7-.4 1.4-1.1 1.9-1.9z"/></svg><view id="share-twitter-on" viewBox="31 68 31 27"/><svg viewBox="-6 -6 31 27" width="31" height="27" x="31" y="68"><path fill="#F98355" d="M19 1.8c-.7.3-1.4.5-2.2.6.8-.5 1.4-1.2 1.7-2.2-.8.4-1.6.8-2.5.9C15.3.5 14.3 0 13.2 0 11 0 9.3 1.7 9.3 3.9c0 .3 0 .6.1.9-3.2-.2-6.1-1.7-8-4.1-.4.6-.6 1.3-.6 2 0 1.4.7 2.5 1.7 3.2-.6 0-1.2-.2-1.8-.5C.7 7.3 2 8.9 3.8 9.2c-.3.1-.7.1-1 .1-.3 0-.5 0-.7-.1.5 1.5 1.9 2.7 3.6 2.7-1.3 1-3 1.7-4.8 1.7-.3 0-.6 0-.9-.1 1.7 1.1 3.8 1.8 6 1.8 7.2 0 11.1-5.9 11.1-11.1v-.5c.7-.4 1.4-1.1 1.9-1.9z"/></svg><view id="twitter" viewBox="41 0 41 40"/><svg viewBox="-6 -6 41 40" width="41" height="40" x="41"><path d="M10.4.9c-.3-.1-.7-.1-1.2.1-3.6 1.5-7 3.3-8.3 7.2-1.3 3.9-1.1 8.4.3 12.3 2.9 7.7 15 9 21.5 5.9 7.5-3.5 8.1-12.6 4.9-19.5C24.7.8 16.7-1.4 10.4.9zm11.7 10.4v.4c0 4.2-3.2 9.1-9.1 9.1-1.8 0-3.5-.5-4.9-1.4h.8c1.5 0 2.9-.5 4-1.4-1.4 0-2.6-1-3-2.2.2 0 .4.1.6.1.3 0 .6 0 .8-.1-1.5-.3-2.6-1.6-2.6-3.1.4.2.9.4 1.4.4-.9-.6-1.4-1.6-1.4-2.7 0-.6.2-1.1.4-1.6 1.6 1.9 3.9 3.2 6.6 3.3-.1-.2-.1-.5-.1-.7 0-1.8 1.4-3.2 3.2-3.2.9 0 1.8.4 2.3 1 .7-.1 1.4-.4 2-.8-.2.7-.7 1.4-1.4 1.8.6-.1 1.3-.2 1.8-.5-.3.6-.8 1.2-1.4 1.6z"/></svg><view id="twitter-on" viewBox="0 0 41 40"/><svg viewBox="-6 -6 41 40" width="41" height="40"><path fill="#F98355" d="M10.4.9c-.3-.1-.7-.1-1.2.1-3.6 1.5-7 3.3-8.3 7.2-1.3 3.9-1.1 8.4.3 12.3 2.9 7.7 15 9 21.5 5.9 7.5-3.5 8.1-12.6 4.9-19.5C24.7.8 16.7-1.4 10.4.9zm11.7 10.4v.4c0 4.2-3.2 9.1-9.1 9.1-1.8 0-3.5-.5-4.9-1.4h.8c1.5 0 2.9-.5 4-1.4-1.4 0-2.6-1-3-2.2.2 0 .4.1.6.1.3 0 .6 0 .8-.1-1.5-.3-2.6-1.6-2.6-3.1.4.2.9.4 1.4.4-.9-.6-1.4-1.6-1.4-2.7 0-.6.2-1.1.4-1.6 1.6 1.9 3.9 3.2 6.6 3.3-.1-.2-.1-.5-.1-.7 0-1.8 1.4-3.2 3.2-3.2.9 0 1.8.4 2.3 1 .7-.1 1.4-.4 2-.8-.2.7-.7 1.4-1.4 1.8.6-.1 1.3-.2 1.8-.5-.3.6-.8 1.2-1.4 1.6z"/></svg></svg>