<?xml version="1.0" encoding="utf-8"?>
<!-- Generator: Adobe Illustrator 17.1.0, SVG Export Plug-In . SVG Version: 6.00 Build 0)  -->
<!DOCTYPE svg PUBLIC "-//W3C//DTD SVG 1.1//EN" "http://www.w3.org/Graphics/SVG/1.1/DTD/svg11.dtd">
<svg version="1.1" id="Capa_1" xmlns="http://www.w3.org/2000/svg" xmlns:xlink="http://www.w3.org/1999/xlink" x="0px" y="0px"
	 viewBox="0 0 15.8 20.5" enable-background="new 0 0 15.8 20.5" xml:space="preserve">
<path d="M8.4,0C2.8,0,0,4,0,7.3c0,2,0.8,3.8,2.4,4.5c0.3,0.1,0.5,0,0.6-0.3c0.1-0.2,0.2-0.7,0.2-0.9c0.1-0.3,0-0.4-0.2-0.7
	C2.6,9.4,2.3,8.7,2.3,7.6c0-3,2.2-5.6,5.8-5.6C11.2,2,13,3.9,13,6.5c0,3.4-1.5,6.2-3.7,6.2c-1.2,0-2.1-1-1.9-2.3
	c0.4-1.5,1-3.1,1-4.2c0-1-0.5-1.8-1.6-1.8c-1.3,0-2.3,1.3-2.3,3c0,1.1,0.4,1.9,0.4,1.9s-1.3,5.4-1.5,6.4c-0.4,1.9-0.1,4.2,0,4.5
	c0,0.1,0.2,0.2,0.3,0.1c0.1-0.2,1.6-2,2.1-3.8c0.1-0.5,0.8-3.2,0.8-3.2c0.4,0.8,1.6,1.5,2.9,1.5c3.8,0,6.3-3.4,6.3-8.1
	C15.8,3.2,12.9,0,8.4,0z"/>
</svg>
