<?xml version="1.0" encoding="utf-8"?>
<!-- Generator: Adobe Illustrator 17.1.0, SVG Export Plug-In . SVG Version: 6.00 Build 0)  -->
<!DOCTYPE svg PUBLIC "-//W3C//DTD SVG 1.1//EN" "http://www.w3.org/Graphics/SVG/1.1/DTD/svg11.dtd">
<svg version="1.1" id="Capa_1" xmlns="http://www.w3.org/2000/svg" xmlns:xlink="http://www.w3.org/1999/xlink" x="0px" y="0px"
	 viewBox="0 0 16.6 16.6" enable-background="new 0 0 16.6 16.6" xml:space="preserve">
<path fill="#F98355" d="M14,0H2.6C1.2,0,0,1.2,0,2.6V14c0,1.4,1.2,2.6,2.6,2.6H14c1.4,0,2.6-1.2,2.6-2.6V2.6C16.6,1.2,15.4,0,14,0z
	 M2.1,8.5h1.9c0,2.3,1.9,4.1,4.2,4.1c2.3,0,4.2-1.9,4.2-4.1h2.2v4.8c0,0.6-0.5,1.2-1.2,1.2h-10c-0.6,0-1.2-0.5-1.2-1.2V8.5z
	 M10.5,8.5c0,1.3-1.1,2.4-2.4,2.4c-1.3,0-2.4-1.1-2.4-2.4c0-1.3,1.1-2.4,2.4-2.4C9.4,6.1,10.5,7.2,10.5,8.5z M11.6,5V2.6h2.3V5H11.6
	z"/>
</svg>
