<?xml version="1.0" encoding="utf-8"?>
<!-- Generator: Adobe Illustrator 17.1.0, SVG Export Plug-In . SVG Version: 6.00 Build 0)  -->
<!DOCTYPE svg PUBLIC "-//W3C//DTD SVG 1.1//EN" "http://www.w3.org/Graphics/SVG/1.1/DTD/svg11.dtd">
<svg version="1.1" id="Capa_1" xmlns="http://www.w3.org/2000/svg" xmlns:xlink="http://www.w3.org/1999/xlink" x="0px" y="0px"
	 viewBox="0 0 19 15.4" enable-background="new 0 0 19 15.4" xml:space="preserve">
<path fill="#F98355" d="M19,1.8c-0.7,0.3-1.4,0.5-2.2,0.6c0.8-0.5,1.4-1.2,1.7-2.2c-0.8,0.4-1.6,0.8-2.5,0.9C15.3,0.5,14.3,0,13.2,0
	C11,0,9.3,1.7,9.3,3.9c0,0.3,0,0.6,0.1,0.9c-3.2-0.2-6.1-1.7-8-4.1C1,1.3,0.8,2,0.8,2.7c0,1.4,0.7,2.5,1.7,3.2
	c-0.6,0-1.2-0.2-1.8-0.5c0,0,0,0,0,0c0,1.9,1.3,3.5,3.1,3.8c-0.3,0.1-0.7,0.1-1,0.1c-0.3,0-0.5,0-0.7-0.1c0.5,1.5,1.9,2.7,3.6,2.7
	c-1.3,1-3,1.7-4.8,1.7c-0.3,0-0.6,0-0.9-0.1c1.7,1.1,3.8,1.8,6,1.8c7.2,0,11.1-5.9,11.1-11.1c0-0.2,0-0.3,0-0.5
	C17.8,3.3,18.5,2.6,19,1.8z"/>
</svg>
