<?xml version="1.0" encoding="utf-8"?>
<!-- Generator: Adobe Illustrator 17.1.0, SVG Export Plug-In . SVG Version: 6.00 Build 0)  -->
<!DOCTYPE svg PUBLIC "-//W3C//DTD SVG 1.1//EN" "http://www.w3.org/Graphics/SVG/1.1/DTD/svg11.dtd">
<svg version="1.1" id="Capa_1" xmlns="http://www.w3.org/2000/svg" xmlns:xlink="http://www.w3.org/1999/xlink" x="0px" y="0px"
	 viewBox="0 0 25.7 16.3" enable-background="new 0 0 25.7 16.3" xml:space="preserve">
<g>
	<path d="M14.5,13.3c-2,2.9-6.1,3.7-9.3,2.5C2,14.5-0.2,11.2,0,7.7C0.1,3.5,3.9-0.1,8.2,0c2-0.1,3.9,0.8,5.4,2
		c-0.7,0.7-1.3,1.5-2.1,2.1C9.7,2.9,7,2.5,5.2,4C2.5,5.8,2.4,10.2,5,12.1c2.5,2.2,7.2,1.1,7.8-2.3c-1.6,0-3.1,0-4.7-0.1
		c0-0.9,0-1.9,0-2.8c2.6,0,5.2,0,7.8,0C16.1,9.2,15.8,11.5,14.5,13.3z"/>
	<path d="M23.3,9.3c0,0.8,0,1.6,0,2.3c-0.8,0-1.6,0-2.3,0c0-0.8,0-1.6,0-2.3c-0.8,0-1.6,0-2.3,0c0-0.8,0-1.6,0-2.3
		c0.8,0,1.6,0,2.3,0c0-0.8,0-2.3,0-2.3s1.6,0,2.3,0c0,0.8,0,1.6,0,2.3c0.8,0,1.6,0,2.3,0c0,0.8,0,1.6,0,2.3
		C24.9,9.3,24.1,9.3,23.3,9.3z"/>
</g>
</svg>
